PathFileType  4	(X/Y/Z) C:\Users\antoi\Documents\MyRepositories\mobilecap\ResultsAnalysis
DataRate	CameraRate	NumFrames	NumMarkers	Units	OrigDataRate	OrigDataStartFrame	OrigNumFrames
100.0	100.0	4	51	mm	100.0	187	248
Frame#	Time	r_knee			r_shank_antsup			r_ankle			r_calc			r_5meta			r_toe			L_knee			L_shank_antsup			L_ankle			L_calc			L_5meta			L_toe			r_sh2			r_sh3			r_sh4			L_sh2			L_sh3			r_thigh1			r_thigh2			r_thigh3			r_thigh4			r_thigh5			L_thigh1			L_thigh2			L_thigh3			L_thigh4			r.ASIS			r.PSIS			L.ASIS			L.PSIS			C7			R_Shoulder			L_Shoulder			R_Sternum			L_Sternum			R_humerus			R_elbow_med			R_elbow_lat			R_forearm			R_wrist_radius			R_wrist_ulna			L_humerus			L_elbow_med			L_elbow_lat			L_forearm			L_wrist_radius			L_wrist_ulna			R_HJC			L_HJC			R_HJC_reg			L_HJC_reg			
		X1	Y1	Z1	X2	Y2	Z2	X3	Y3	Z3	X4	Y4	Z4	X5	Y5	Z5	X6	Y6	Z6	X7	Y7	Z7	X8	Y8	Z8	X9	Y9	Z9	X10	Y10	Z10	X11	Y11	Z11	X12	Y12	Z12	X13	Y13	Z13	X14	Y14	Z14	X15	Y15	Z15	X16	Y16	Z16	X17	Y17	Z17	X18	Y18	Z18	X19	Y19	Z19	X20	Y20	Z20	X21	Y21	Z21	X22	Y22	Z22	X23	Y23	Z23	X24	Y24	Z24	X25	Y25	Z25	X26	Y26	Z26	X27	Y27	Z27	X28	Y28	Z28	X29	Y29	Z29	X30	Y30	Z30	X31	Y31	Z31	X32	Y32	Z32	X33	Y33	Z33	X34	Y34	Z34	X35	Y35	Z35	X36	Y36	Z36	X37	Y37	Z37	X38	Y38	Z38	X39	Y39	Z39	X40	Y40	Z40	X41	Y41	Z41	X42	Y42	Z42	X43	Y43	Z43	X44	Y44	Z44	X45	Y45	Z45	X46	Y46	Z46	X47	Y47	Z47	X48	Y48	Z48	X49	Y49	Z49	X50	Y50	Z50	X51	Y51	Z51	

187	1.86000000	-195.65955	940.81773	-471.83443	-162.81375	819.52370	-463.51211	-248.97583	476.98413	-448.80930	-302.68216	489.61407	-509.31068	-187.20707	317.72998	-448.44219	-121.24815	340.01128	-492.24471	-258.06404	934.23619	-833.93556	-207.25342	833.60564	-829.44622	-268.80111	485.24820	-816.17735	-316.18726	498.48727	-744.67083	-211.04233	327.98634	-824.21688	-148.13112	339.88710	-779.27786	-155.18188	705.51117	-465.86778	-232.32518	813.99252	-428.25674	-222.52111	698.95255	-415.12131	-296.12481	831.62844	-843.98001	-272.60790	712.69153	-867.50415	-82.52518	1168.23593	-492.47658	-91.03738	1055.57852	-497.20886	-128.42227	1032.46192	-446.90167	-180.06523	1167.92443	-433.75008	-181.67473	1050.20494	-443.94414	-175.98555	1180.84623	-885.49964	-172.18631	1044.35366	-869.73614	-288.43700	1177.53722	-874.90008	-281.42930	1041.48400	-850.15142	-90.33551	1431.74720	-538.48496	-286.32651	1497.06289	-608.72908	-120.45221	1435.58690	-812.00208	-298.60410	1501.45952	-699.85290	-117.67603	1989.34201	-654.40757	-83.95416	2001.74623	-550.09142	-66.93380	2009.42993	-751.92635	13.75444	1941.18192	-644.30374	25.11375	1943.20708	-684.49676	-28.90540	2074.16879	-483.68858	193.44761	2146.03690	-446.56912	123.43953	2180.63537	-393.32177	34.87680	2218.37891	-534.53120	-10.87583	2248.35084	-622.45727	-16.21294	2285.80616	-606.73377	-13.17896	2075.44987	-858.31554	204.46006	2080.15983	-958.16074	137.68518	2131.11520	-985.34925	86.40827	2163.53761	-833.14634	41.25767	2239.82521	-750.74210	43.56820	2281.63131	-773.52048	-184.21903	1365.71203	-570.22202	-206.90702	1358.63530	-782.28593	-176.00262	1358.27866	-570.25040	-200.25355	1366.95229	-750.03300	
188	1.87000000	-197.01128	958.36369	-473.07834	-165.86406	838.45768	-463.53332	-247.75325	495.07773	-450.04788	-300.03272	505.15049	-512.69816	-182.89289	337.86216	-442.56107	-115.86663	359.87733	-485.42656	-260.45714	953.11081	-832.98207	-210.71044	853.38671	-830.06624	-266.01009	504.43968	-814.50174	-311.11732	514.81537	-742.22278	-204.22290	348.79791	-828.65636	-140.25092	361.29030	-785.08779	-156.60246	724.08062	-465.76483	-236.56072	831.78781	-431.36921	-225.33151	717.05654	-417.15869	-300.02165	849.54017	-840.39513	-275.82543	731.20227	-864.44929	-81.98334	1185.23106	-494.25020	-91.60810	1072.41094	-500.00211	-128.08750	1049.82265	-448.17978	-178.89149	1185.36846	-434.52889	-181.39412	1067.46993	-445.03275	-173.80656	1198.76676	-884.88952	-171.72455	1062.44682	-868.18311	-286.49452	1196.89466	-876.90357	-281.48261	1060.94745	-851.08944	-89.53718	1450.07329	-537.71976	-285.34180	1514.03715	-609.37926	-118.70817	1453.79612	-811.37872	-298.46494	1517.81728	-699.75918	-118.64701	2008.40388	-655.66295	-87.04902	2020.06691	-550.97703	-68.17973	2027.81837	-753.34875	12.22631	1959.50246	-643.50051	24.39801	1961.67732	-683.44379	-31.83344	2092.37672	-484.43956	191.05162	2161.95470	-444.24157	120.69356	2197.67356	-392.37290	34.06305	2232.74365	-535.44816	-11.18728	2261.55800	-623.94760	-16.79895	2299.31163	-609.22155	-14.23505	2092.92424	-860.35857	201.26984	2094.66293	-964.45583	134.40412	2145.94038	-991.09579	84.94019	2177.64968	-838.38220	37.13156	2257.20345	-755.44548	37.77046	2298.25776	-778.53741	-182.74963	1383.36768	-569.90044	-204.63547	1375.96679	-782.03775	-173.46846	1376.95264	-568.38295	-199.53524	1384.47948	-748.00549	
189	1.88000000	-197.71401	975.06057	-473.89210	-168.22147	856.13302	-463.09688	-246.78865	512.28016	-451.23466	-297.42249	520.05416	-516.07210	-179.38274	356.63541	-437.80901	-111.30841	379.20818	-478.58099	-261.96080	970.48847	-832.66504	-214.20739	871.86673	-831.78205	-263.21718	522.18673	-813.15827	-306.03566	530.85608	-740.00836	-198.79553	367.40586	-831.05561	-133.54256	381.28351	-789.48895	-157.55500	741.70513	-465.13877	-240.24982	848.64665	-433.66801	-226.81763	733.55401	-418.77365	-303.81417	866.06112	-836.18742	-279.27139	748.19697	-861.80588	-81.72521	1201.45316	-495.53296	-91.88639	1088.86149	-501.30861	-127.85078	1066.38503	-449.04768	-178.38956	1201.98523	-435.33294	-181.19300	1084.04107	-445.78921	-171.01748	1215.85003	-884.35852	-170.03297	1079.78317	-866.96800	-283.92706	1214.60013	-879.94126	-280.26702	1078.59518	-853.53229	-88.90972	1467.07863	-537.89267	-284.67356	1530.96423	-608.53993	-117.57487	1470.82798	-810.37581	-298.07631	1535.00038	-700.51166	-119.45166	2025.97779	-656.51781	-89.65247	2037.12166	-551.91147	-68.94543	2045.06137	-754.67629	10.93832	1976.67199	-643.08553	23.74375	1978.96630	-682.82417	-34.32015	2109.18540	-485.07397	188.71089	2176.71308	-441.86929	118.01364	2213.73897	-391.37541	33.62398	2246.36449	-536.09900	-11.05261	2274.37792	-625.31732	-16.46895	2312.56211	-611.49014	-15.23288	2108.86749	-862.41970	198.20154	2107.98717	-970.98725	131.47459	2159.83953	-996.49992	83.85933	2191.08838	-843.58588	33.53232	2273.56558	-760.16982	32.71476	2313.86589	-783.45610	-182.17344	1400.38651	-569.67271	-203.70256	1393.03607	-781.84874	-172.47897	1394.08288	-568.47642	-198.53108	1401.91949	-747.26908	
190	1.89000000	-197.10340	990.93255	-474.41771	-168.92827	872.52087	-462.62367	-246.19559	528.50122	-452.47648	-295.51642	534.29941	-518.84408	-176.04728	375.05616	-433.42806	-107.42875	398.33209	-472.55851	-261.70162	986.40021	-833.04355	-216.06866	888.93016	-833.70361	-260.97148	538.03912	-812.76124	-301.86349	546.22407	-738.41999	-194.62254	383.89684	-831.64554	-128.28411	399.54555	-792.34456	-157.62339	758.24845	-464.39733	-241.96063	864.75733	-434.96730	-226.55887	748.92522	-419.93473	-305.69658	881.90453	-833.30604	-281.29688	764.26499	-860.70085	-81.60382	1217.20289	-496.70069	-91.64078	1104.93044	-501.59013	-127.27069	1082.40754	-449.59357	-178.13332	1217.92026	-436.05625	-180.68665	1100.03657	-446.12902	-168.07303	1232.18480	-884.06784	-166.92418	1096.31830	-866.00594	-280.98897	1230.51062	-882.80568	-277.47620	1094.34660	-856.26951	-88.03579	1482.90969	-538.98351	-284.09421	1547.68324	-607.02449	-116.82687	1486.77672	-809.17277	-297.48353	1552.46204	-702.04225	-120.19292	2042.41329	-657.31660	-91.80573	2052.94739	-552.60883	-69.33802	2061.08315	-755.93473	9.55107	1992.08057	-642.66269	22.90032	1994.41790	-682.21965	-36.42451	2124.71058	-485.62450	186.58998	2190.58226	-439.23106	115.33218	2229.00982	-390.39260	33.11165	2259.72604	-535.63845	-10.50745	2286.67299	-626.61266	-15.44209	2325.28273	-613.40772	-15.89351	2123.55518	-864.47850	195.33748	2120.18076	-977.55145	128.78609	2172.77666	-1001.66672	83.21292	2203.79206	-848.65716	30.51194	2288.93359	-764.85436	28.36459	2328.45941	-788.27384	-182.01679	1416.75386	-569.69248	-203.59266	1409.61233	-781.87084	-172.27339	1410.11766	-569.93782	-197.26915	1419.03479	-747.31584	
